<?xml version="1.0" encoding="UTF-8"?>
<svg id="Layer_1" xmlns="http://www.w3.org/2000/svg" version="1.1" viewBox="0 0 1000 1000">
  <!-- Generator: Adobe Illustrator 29.1.0, SVG Export Plug-In . SVG Version: 2.1.0 Build 142)  -->
  <defs>
    <style>
      .st0 {
        fill: #fff;
      }
    </style>
  </defs>
  <g>
    <path class="st0" d="M487.8,435.5h21.1l35.4,100.6h-21.2l-6.8-21.4h-36.3l-6.6,21.4h-20.7l35-100.6h.1ZM484.8,499.1h26.6l-9-29c-1.7-5.3-4.1-15.5-4.1-15.5h-.3s-2.5,10.1-4.2,15.5l-9,29Z"/>
    <path class="st0" d="M551.2,463.9h18.4v9h.4c4.6-6.3,11.4-11,21.2-11,19.1,0,31.4,15.6,31.4,38.1s-12.7,38.1-31.2,38.1-16.7-4.1-20.8-10.3h-.3v31.8h-19.1v-95.8h0ZM603.2,500.6c0-13.6-4.8-23.2-16.6-23.2s-16.7,10.3-16.7,23.2,6,21.7,17.4,21.7,15.9-8,15.9-21.7h0Z"/>
    <path class="st0" d="M628,500.1c0-21.5,15.3-38.1,37.7-38.1s37.7,16.6,37.7,38.1-15.3,38.1-37.7,38.1-37.7-16.6-37.7-38.1ZM684,500.1c0-14.1-6.6-23.6-18.3-23.6s-18.3,9.6-18.3,23.6,6.5,23.5,18.3,23.5,18.3-9.4,18.3-23.5h0Z"/>
    <path class="st0" d="M712.5,435.5h19.1v100.6h-19.1v-100.6h0Z"/>
    <path class="st0" d="M744.6,435.5h19.1v100.6h-19.1v-100.6h0Z"/>
    <path class="st0" d="M772.9,500.1c0-21.5,15.3-38.1,37.7-38.1s37.7,16.6,37.7,38.1-15.3,38.1-37.7,38.1-37.7-16.6-37.7-38.1ZM828.8,500.1c0-14.1-6.6-23.6-18.3-23.6s-18.3,9.6-18.3,23.6,6.5,23.5,18.3,23.5,18.3-9.4,18.3-23.5h0Z"/>
  </g>
  <path class="st0" d="M857.1,435.5h19.1v17.2h-19.1v-17.2ZM857.1,463.9h19.1v72.2h-19.1v-72.2h0Z"/>
  <path class="st0" d="M937.4,527.9h-.3c-3.5,5.8-10,10.3-19.7,10.3-17.4,0-31.2-14.8-31.2-38.1s12.1-38.1,31.2-38.1,15.9,4.1,20.3,11h.4v-9h18.4v95.8h-19.1v-31.8h0ZM937.9,500.6c0-13.1-4.6-23.5-16.2-23.5s-16,9.8-16,23.5,5.8,21.2,15.9,21.2,16.3-8.2,16.3-21.2h0Z"/>
  <path class="st0" d="M380.2,496v8s-32.1,0-32.1,32.1h-8s0-32.1-32.1-32.1v-8s32.1,0,32.1-32.1h8s0,32.1,32.1,32.1h0ZM251.9,447.9h8c0-32.1,32.1-32.1,32.1-32.1v-8c-32.1,0-32.1-32.1-32.1-32.1h-8c0,32.1-32.1,32.1-32.1,32.1v8c32.1,0,32.1,32.1,32.1,32.1ZM83.5,463.9h-8c0,32.1-32.1,32.1-32.1,32.1v8c32.1,0,32.1,32.1,32.1,32.1h8c0-32.1,32.1-32.1,32.1-32.1v-8c-32.1,0-32.1-32.1-32.1-32.1h0ZM259.9,463.9h-8c0,32.1-32.1,32.1-32.1,32.1v8c32.1,0,32.1,32.1,32.1,32.1v16c0,32.1-32.1,32.1-32.1,32.1v8c32.1,0,32.1,32.1,32.1,32.1h8c0-32.1,32.1-32.1,32.1-32.1v-8c-32.1,0-32.1-32.1-32.1-32.1v-16c0-32.1,32.1-32.1,32.1-32.1v-8c-32.1,0-32.1-32.1-32.1-32.1h0ZM171.7,375.7h-8c0,32.1-32.1,32.1-32.1,32.1v8c32.1,0,32.1,32.1,32.1,32.1v16c0,32.1-32.1,32.1-32.1,32.1v8c32.1,0,32.1,32.1,32.1,32.1h8c0-32.1,32.1-32.1,32.1-32.1v-8c-32.1,0-32.1-32.1-32.1-32.1v-16c0-32.1,32.1-32.1,32.1-32.1v-8c-32.1,0-32.1-32.1-32.1-32.1h0Z"/>
</svg>