<?xml version="1.0" encoding="UTF-8"?>
<svg id="Layer_1" xmlns="http://www.w3.org/2000/svg" version="1.1" viewBox="0 0 1000 1000">
  <!-- Generator: Adobe Illustrator 29.1.0, SVG Export Plug-In . SVG Version: 2.1.0 Build 142)  -->
  <defs>
    <style>
      .st0 {
        fill: #fff;
      }
    </style>
  </defs>
  <path class="st0" d="M753.6,494.2v12s-48.2,0-48.2,48.2h-12s0-48.2-48.2-48.2v-12s48.2,0,48.2-48.2h12s0,48.2,48.2,48.2h0ZM560.3,421.8h12c0-48.2,48.2-48.2,48.2-48.2v-12c-48.2,0-48.2-48.2-48.2-48.2h-12c0,48.2-48.2,48.2-48.2,48.2v12c48.2,0,48.2,48.2,48.2,48.2h0ZM306.7,445.8h-12c0,48.2-48.2,48.2-48.2,48.2v12c48.2,0,48.2,48.2,48.2,48.2h12c0-48.2,48.2-48.2,48.2-48.2v-12c-48.2,0-48.2-48.2-48.2-48.2ZM572.4,445.8h-12c0,48.2-48.2,48.2-48.2,48.2v12c48.2,0,48.2,48.2,48.2,48.2v24.2c0,48.2-48.2,48.2-48.2,48.2v12c48.2,0,48.2,48.2,48.2,48.2h12c0-48.2,48.2-48.2,48.2-48.2v-12c-48.2,0-48.2-48.2-48.2-48.2v-24.2c0-48.2,48.2-48.2,48.2-48.2v-12c-48.2,0-48.2-48.2-48.2-48.2ZM439.5,313h-12c0,48.2-48.2,48.2-48.2,48.2v12c48.2,0,48.2,48.2,48.2,48.2v24.2c0,48.2-48.2,48.2-48.2,48.2v12c48.2,0,48.2,48.2,48.2,48.2h12c0-48.2,48.2-48.2,48.2-48.2v-12c-48.2,0-48.2-48.2-48.2-48.2v-24.2c0-48.2,48.2-48.2,48.2-48.2v-12c-48.2,0-48.2-48.2-48.2-48.2Z"/>
</svg>