<?xml version="1.0" encoding="UTF-8"?>
<svg id="Layer_1" xmlns="http://www.w3.org/2000/svg" version="1.1" viewBox="0 0 1000 1000">
  <!-- Generator: Adobe Illustrator 29.4.0, SVG Export Plug-In . SVG Version: 2.1.0 Build 152)  -->
  <defs>
    <style>
      .st0 {
        stroke-width: 51.2px;
      }

      .st0, .st1 {
        fill: none;
        stroke: #000;
        stroke-linecap: round;
        stroke-linejoin: round;
      }

      .st1 {
        stroke-width: 48.6px;
      }
    </style>
  </defs>
  <g>
    <path class="st1" d="M231.8,175.9v648.3c0,43.3,35.1,78.4,78.4,78.4h457.9"/>
    <line class="st1" x1="768.2" y1="609.1" x2="768.2" y2="761"/>
    <path class="st1" d="M153.4,97.5h536.4c43.3,0,78.4,35.1,78.4,78.4v52.6"/>
    <path class="st1" d="M231.8,267H75v-91.1c0-43.3,35.1-78.4,78.4-78.4s78.4,35.1,78.4,78.4v91.1Z"/>
    <path class="st1" d="M310.2,902.5c43.3,0,78.4-35.1,78.4-78.4v-63.1h536.4v63.1c0,43.3-35.1,78.4-78.4,78.4h-78.4"/>
  </g>
  <path d="M780.2,534.8h-24c0-60.2-48.8-108.9-108.9-108.9v-24c60.2,0,108.9-48.8,108.9-108.9h24c0,60.2,48.8,108.9,108.9,108.9v24c-60.2,0-108.9,48.8-108.9,108.9Z"/>
  <line class="st0" x1="535.1" y1="609.1" x2="345.3" y2="609.1"/>
  <line class="st1" x1="535.1" y1="508.3" x2="345.3" y2="508.3"/>
  <line class="st1" x1="535.1" y1="307.9" x2="345.3" y2="307.9"/>
  <line class="st1" x1="535.1" y1="413.9" x2="345.3" y2="413.9"/>
</svg>