<?xml version="1.0" encoding="UTF-8"?>
<svg id="Layer_1" xmlns="http://www.w3.org/2000/svg" version="1.1" viewBox="0 0 1000 1000">
  <!-- Generator: Adobe Illustrator 29.4.0, SVG Export Plug-In . SVG Version: 2.1.0 Build 152)  -->
  <defs>
    <style>
      .st0 {
        fill: none;
        stroke: #000;
        stroke-linecap: round;
        stroke-linejoin: round;
        stroke-width: 51.4px;
      }
    </style>
  </defs>
  <path class="st0" d="M745.8,603v287.9c0,18.8-15.4,34.2-34.2,34.2H196.5c-59.8,0-108.7-48.9-108.7-108.7V183.7c0-59.8,48.9-108.7,108.7-108.7h515.1c18.8,0,34.2,15.4,34.2,34.2"/>
  <path class="st0" d="M196.2,708.2h549.6v181.8c0,19.3-15.7,35-35,35H196.2c-59.8,0-108.4-48.6-108.4-108.4h0c0-59.8,48.6-108.4,108.4-108.4Z"/>
  <line class="st0" x1="734.4" y1="818.4" x2="198.3" y2="818.4"/>
  <line class="st0" x1="198.3" y1="690.3" x2="198.3" y2="154.1"/>
  <path d="M634.5,603h-36.5c0-100.1-81.1-181.2-181.2-181.2v-36.5c100.1,0,181.2-81.1,181.2-181.2h36.5c0,100.1,81.1,181.2,181.2,181.2v36.5c-100.1,0-181.2,81.1-181.2,181.2Z"/>
  <path d="M823.9,336.2h-17.8c0-48.8-39.5-88.3-88.3-88.3v-17.8c48.8,0,88.3-39.5,88.3-88.3h17.8c0,48.8,39.5,88.3,88.3,88.3v17.8c-48.8,0-88.3,39.5-88.3,88.3Z"/>
</svg>