<?xml version="1.0" encoding="UTF-8"?>
<svg id="Layer_1" xmlns="http://www.w3.org/2000/svg" xmlns:xlink="http://www.w3.org/1999/xlink" version="1.1" viewBox="0 0 1000 1000">
  <!-- Generator: Adobe Illustrator 29.1.0, SVG Export Plug-In . SVG Version: 2.1.0 Build 142)  -->
  <defs>
    <style>
      .st0 {
        fill: none;
      }

      .st1 {
        fill: url(#linear-gradient2);
      }

      .st2 {
        fill: url(#linear-gradient1);
      }

      .st3 {
        fill: url(#linear-gradient);
      }

      .st4 {
        clip-path: url(#clippath-1);
      }

      .st5 {
        clip-path: url(#clippath-2);
      }

      .st6 {
        fill: #0b173d;
      }

      .st7 {
        clip-path: url(#clippath);
      }
    </style>
    <clipPath id="clippath">
      <path class="st0" d="M379.9,496v8s-32.1,0-32.1,32.1h-8s0-32.1-32.1-32.1v-8s32.1,0,32.1-32.1h8s0,32.1,32.1,32.1ZM251.3,447.8h8c0-32.1,32.1-32.1,32.1-32.1v-8c-32.1,0-32.1-32.1-32.1-32.1h-8c0,32.1-32.1,32.1-32.1,32.1v8c32.1,0,32.1,32.1,32.1,32.1ZM82.5,463.8h-8c0,32.1-32.1,32.1-32.1,32.1v8c32.1,0,32.1,32.1,32.1,32.1h8c0-32.1,32.1-32.1,32.1-32.1v-8c-32.1,0-32.1-32.1-32.1-32.1ZM259.3,463.8h-8c0,32.1-32.1,32.1-32.1,32.1v8c32.1,0,32.1,32.1,32.1,32.1v16.1c0,32.1-32.1,32.1-32.1,32.1v8c32.1,0,32.1,32.1,32.1,32.1h8c0-32.1,32.1-32.1,32.1-32.1v-8c-32.1,0-32.1-32.1-32.1-32.1v-16.1c0-32.1,32.1-32.1,32.1-32.1v-8c-32.1,0-32.1-32.1-32.1-32.1ZM170.9,375.4h-8c0,32.1-32.1,32.1-32.1,32.1v8c32.1,0,32.1,32.1,32.1,32.1v16.1c0,32.1-32.1,32.1-32.1,32.1v8c32.1,0,32.1,32.1,32.1,32.1h8c0-32.1,32.1-32.1,32.1-32.1v-8c-32.1,0-32.1-32.1-32.1-32.1v-16.1c0-32.1,32.1-32.1,32.1-32.1v-8c-32.1,0-32.1-32.1-32.1-32.1Z"/>
    </clipPath>
    <linearGradient id="linear-gradient" x1="-2927.3" y1="1326.2" x2="-2677.5" y2="1326.2" gradientTransform="translate(3025.4 -826.3)" gradientUnits="userSpaceOnUse">
      <stop offset=".2" stop-color="#00c393"/>
      <stop offset=".4" stop-color="#04ba9b"/>
      <stop offset=".6" stop-color="#0fa4b2"/>
      <stop offset=".9" stop-color="#2281d8"/>
      <stop offset="1" stop-color="#2c70eb"/>
    </linearGradient>
    <clipPath id="clippath-1">
      <path class="st0" d="M858,435.4h19.2v17.2h-19.2v-17.2ZM858,463.8h19.2v72.3h-19.2v-72.3Z"/>
    </clipPath>
    <linearGradient id="linear-gradient1" x1="-2926.7" y1="639.2" y2="639.2" gradientTransform="translate(3712.1 -139.1)" xlink:href="#linear-gradient"/>
    <clipPath id="clippath-2">
      <path class="st0" d="M938.5,528h-.3c-3.5,5.8-10,10.3-19.7,10.3-17.5,0-31.3-14.8-31.3-38.2s12.1-38.2,31.3-38.2,15.9,4.1,20.3,11h.4v-9h18.5v96h-19.2v-31.9ZM938.9,500.6c0-13.1-4.7-23.5-16.2-23.5s-16.1,9.9-16.1,23.5,5.8,21.3,15.9,21.3,16.4-8.2,16.4-21.3Z"/>
    </clipPath>
    <linearGradient id="linear-gradient2" x1="-2926.7" y1="639.2" y2="639.2" gradientTransform="translate(3712.1 -139.1)" xlink:href="#linear-gradient"/>
  </defs>
  <g>
    <path class="st6" d="M487.7,435.4h21.1l35.5,100.8h-21.3l-6.8-21.4h-36.4l-6.6,21.4h-20.7l35.1-100.8ZM484.8,499.1h26.6l-9-29c-1.7-5.4-4.1-15.5-4.1-15.5h-.3s-2.5,10.2-4.2,15.5l-9,29Z"/>
    <path class="st6" d="M551.3,463.8h18.5v9h.4c4.7-6.3,11.4-11,21.3-11,19.2,0,31.4,15.7,31.4,38.2s-12.7,38.2-31.3,38.2-16.8-4.1-20.9-10.3h-.3v31.9h-19.2v-96ZM603.5,500.6c0-13.7-4.8-23.3-16.6-23.3s-16.8,10.3-16.8,23.3,6.1,21.7,17.5,21.7,15.9-8,15.9-21.7Z"/>
    <path class="st6" d="M628.3,500.1c0-21.6,15.4-38.2,37.8-38.2s37.8,16.6,37.8,38.2-15.4,38.2-37.8,38.2-37.8-16.6-37.8-38.2ZM684.4,500.1c0-14.1-6.6-23.7-18.3-23.7s-18.3,9.6-18.3,23.7,6.5,23.5,18.3,23.5,18.3-9.4,18.3-23.5Z"/>
    <path class="st6" d="M713,435.4h19.2v100.8h-19.2v-100.8Z"/>
    <path class="st6" d="M745.2,435.4h19.2v100.8h-19.2v-100.8Z"/>
    <path class="st6" d="M773.5,500.1c0-21.6,15.4-38.2,37.8-38.2s37.8,16.6,37.8,38.2-15.4,38.2-37.8,38.2-37.8-16.6-37.8-38.2ZM829.6,500.1c0-14.1-6.6-23.7-18.3-23.7s-18.3,9.6-18.3,23.7,6.5,23.5,18.3,23.5,18.3-9.4,18.3-23.5Z"/>
  </g>
  <g class="st7">
    <rect class="st3" x="98.1" y="321.3" width="249.7" height="357" transform="translate(722.8 276.8) rotate(90)"/>
  </g>
  <g class="st4">
    <rect class="st2" x="785.4" y="432.3" width="249.2" height="135.6" transform="translate(1410.1 -409.9) rotate(90)"/>
  </g>
  <g class="st5">
    <rect class="st1" x="785.4" y="432.3" width="249.2" height="135.6" transform="translate(1410.1 -409.9) rotate(90)"/>
  </g>
</svg>