<?xml version="1.0" encoding="UTF-8"?>
<svg id="Layer_1" xmlns="http://www.w3.org/2000/svg" version="1.1" viewBox="0 0 1000 1000">
  <!-- Generator: Adobe Illustrator 29.4.0, SVG Export Plug-In . SVG Version: 2.1.0 Build 152)  -->
  <defs>
    <style>
      .st0 {
        stroke-width: 46.6px;
      }

      .st0, .st1 {
        fill: none;
        stroke: #000;
        stroke-miterlimit: 10;
      }

      .st1 {
        stroke-linecap: round;
        stroke-width: 69.8px;
      }
    </style>
  </defs>
  <path class="st0" d="M610.4,529.9l-181.3-160.4c-13.1-11.6-33.3-10.4-44.9,2.7l-58.1,65.6c-11.6,13.1-10.4,33.3,2.7,44.9l18.7,16.6-223.7,252.8c-35,39.5-31.2,100.5,8.3,135.5h0c39.5,35,100.5,31.2,135.5-8.3l223.7-252.8,18.7,16.6c13.1,11.6,33.3,10.4,44.9-2.7l58.1-65.6c11.6-13.1,10.4-33.3-2.7-44.9Z"/>
  <line class="st1" x1="191.3" y1="821.1" x2="351.2" y2="640.3"/>
  <path d="M746.5,556.6h-30.9c0-84.8-68.7-153.5-153.5-153.5v-30.9c84.8,0,153.5-68.7,153.5-153.5h30.9c0,84.8,68.7,153.5,153.5,153.5v30.9c-84.8,0-153.5,68.7-153.5,153.5Z"/>
  <path d="M587.3,252.9h-15.1c0-41.3-33.5-74.8-74.8-74.8v-15.1c41.3,0,74.8-33.5,74.8-74.8h15.1c0,41.3,33.5,74.8,74.8,74.8v15.1c-41.3,0-74.8,33.5-74.8,74.8Z"/>
</svg>