<?xml version="1.0" encoding="UTF-8"?>
<svg id="Layer_1" xmlns="http://www.w3.org/2000/svg" version="1.1" viewBox="0 0 1000 1000">
  <defs>
    <style>
      .st0 {
        fill: none;
      }
      .st1 {
        fill: #ffffff;
      }
      .st2 {
        clip-path: url(#clippath);
      }
    </style>
    <clipPath id="clippath">
      <path class="st0" d="M733.1,443.5c-2.7-23.5,16.7-30.4,31.3-44.3,46.9-44.5,150.2-162.4,51.6-208-13.4-6.2-30.2-10.3-44.7-12.7-143-22.1-345.7,61.2-462.1,142.1-42.9,29.9-133.6,102.3-126.9,160.4,4.3,38.6,53.9,48.3,85.6,48-26.6,49.4-35.1,107.3-27.3,162.9,76-37.6,117.7-115.7,165.4-181.7l-.7-2c-23.2,23.3-58.8,48.7-92.5,52.1-6.9.7-14.5-.5-21.5,0l31.7-18.5c32.9-21.4,51-57.2,76.4-85.1,23-25.3,52.3-45.1,76.6-70.6.7-.7,1.1-3.8,2.4-.4,2.2,5.8,0,17.6-.9,23.9-5.1,37.1-29,74.2-44.3,108.1-32.8,72-83.4,190.1-75.3,268.6.7,7.2,3.1,14.3,3.8,21.5-1.4,1.4-11.8-9.6-13-11-23.2-27.5-24.1-69.3-15.4-102.4,3.6-13.6,9.8-26.1,15.2-38.7-27.3,30.4-62.4,56.3-103,65.2,19.7,59.7,58.6,110.2,109.5,146.6,3.8,1.8,28.8-25.3,32.6-30,75.1-92.5,30.6-170.5,59.4-270.2,3.1-10.5,7.6-23.7,11.9-33.7.7-1.6.7-3.8,2.9-4.2-.2,42,14.5,82.7,17,124.5,4.5,78.9-25.5,162-84.7,215,2.9.5,7.2-1.8,10-3.1,64.1-28.2,102.3-99.4,106.1-167.6,5.2-94.7-48-192.8,15.7-277.3,8.3-11,19-20.1,29.7-29-6.7.5-14.3,3.3-21.2,2.9-15.6-.9-26.6-14.3-28.2-29.1-2-17.6,3.6-28.4,10.9-43.6,11.9-24.8,26.6-48.7,38.6-73.5,30.4-10,62.8-18.3,94.8-18.6l32.8,57.9c.7,7.8-16.3,21.2-14.1,29.5.9,3.1,9.8,14.3,12.3,17.7,6.9,9.4,38.7,45.3,39.6,53,1.1,11-12.1,17.4-21.5,17.6-12.5.2-42.9-4.2-55.7-6.9-2-.4-5.2-.9-6-3.1l1.1-17.4c-13.9-1.4-23,11-33.5,17.9-10.7,7.1-23.7,12.1-34.2,19.2-38.6,26.6-45.6,77.6-5.4,106.1-14.5-38,2-80.7,41.8-93,17.2-5.4,71.5-5.4,84.7,7.8s7.4,20.3-3.4,24.1c-8.1,2.7-38.2,2-48.1,1.4-14.3-.7-28.2-4.5-42.2-6-1.4,0-3.1-.7-2.7,1.4.7,2.2,8.1,11.8,10.1,13.8,15.9,14.8,46.5,17.7,67.3,16.8,7.6-.4,19.2-4,25.9-1.1,16.1,6.5,40.7,43.8,48.7,59.5,25.7,50.9,31.3,121.8,13.9,176.1-2.2,6.5-5.2,15.9-9.8,20.8,5.1-21.4,1.4-45.3-3.3-66.4-8.1-36.7-27.7-76.2-54.1-103,18.5,52.9,23.3,107.2,6.9,161.3-20.3,66.2-72.6,128.7-138.5,152.8,84.9-63.4,134.8-176.5,84.5-278l-11.6-19c33.1,136.7-62.1,272-188.6,317.7l-47.2,13.4c52.5,14.1,106.8,19.9,160.5,10.1,198.2-36.4,308.6-248.3,208.3-429.2-7.2-13.2-35.5-48.1-36.7-58.5l1.1-.9ZM381.3,427.8c-12.3,7.6-45.4,24.3-59.2,24.3h-25.3c29.1-19.5,54.5-44.3,74.8-73.1,8.3-11.8,16.5-23.5,25.7-34.4,29.5-34.9,67-59.5,108.8-77.6-23.5,61.5-67.7,125.8-124.5,160.7l-.2.2ZM455.7,83.3l-29.1,15.9c-20.6,13.4-41.1,29.7-57,48.7-1.3,1.4-3.1,2.2-2.5,4.5,38.4-27.3,83.4-46.3,130.9-49.6l11,1.3c-45.1,12.7-85.8,40-118.6,72.9,11-5.1,20.8-11.8,31.7-17.2,48.5-23.7,96.7-39.6,151.3-37.5,1.6,0,4.9-.9,4.5,1.3-41.8,8.1-84,25.3-116,53.4,48.5-19.2,100.3-33.1,153.1-29.9,8.1.5,19.5,2,27.5,3.8,2.2.5,3.8-1.3,3.1,2.7-29.5,2-60.3,9.4-88.9,17.4-102.1,28.2-193.9,83.8-277.8,146.8,1.8-14.1,6.2-28.1,7.2-42.4,2.7-40.5-7.1-96.3-59.2-93-37.6,2.4-81.1,47.6-66.8,86.3,16.3,44.5,76.2,3.8,32.2-26.4,57.7,11,40.2,86.3-17.4,80.5-57.2-5.8-61-76.7-44-119.3,27.5-68.8,99.4-120.5,170.9-135.4,52.3-10.9,104.3-4.2,153.9,15h0ZM479,854.6c62.8-70,95.2-171,79.1-264.8l-11.9-54.5c32.4,39.5,52.7,76.9,50.1,129.6-3.6,74-47.6,158.6-117.3,189.5v.2ZM536.4,306.1c23.2-35.8,76.6-43.8,109.1-16.3-2.9,4-10,17.2-14.7,17.7s-21.9-6.5-27.7-7.4c-22.4-3.4-45.1.2-66.8,6.2v-.2ZM632.9,340c-21.5-9.1-42.4-10.7-64.4-2.5-5.8,2.2-10.7,5.6-16.3,7.8,14.7-36,68.6-51.6,80.7-5.2ZM853.7,469h-4c0-21.9-17.7-39.6-39.6-39.6v-4c21.9,0,39.6-17.7,39.6-39.6h4c0,21.9,17.7,39.6,39.6,39.6v4c-21.9,0-39.6,17.7-39.6,39.6ZM150.3,614.2h-4c0-21.9-17.7-39.6-39.6-39.6v-4c21.9,0,39.6-17.7,39.6-39.6h4c0,21.9,17.7,39.6,39.6,39.6v4c-21.9,0-39.6,17.7-39.6,39.6ZM847.3,558.3h-2c0-10.3-8.3-18.6-18.6-18.6v-2c10.3,0,18.6-8.3,18.6-18.6h2c0,10.3,8.3,18.6,18.6,18.6v2c-10.3,0-18.6,8.3-18.6,18.6Z"/>
    </clipPath>
  </defs>
  <g class="st2">
    <rect class="st1" x="78.3" y="29" width="845.6" height="998.6"/>
  </g>
</svg>